# xmcd
#
# Track frame offsets: 
#        150
#        93277
#        110984
#        122850
#        135964
#        148454
#        162110
#        177236
#        191233
#        203117
#        215578
#        229976
#        243292
#
# Disc length: 3418 seconds
#
# Revision: 0
# Processed by: cddbd v1.5.2PL0 Copyright (c) Steve Scherf et al.
# Submitted via: ExactAudioCopy v0.95b3
#
DISCID=c60d580d
DTITLE=Various Artist - Géneros Musicales - Blues
DYEAR=1997
DGENRE=Blues
TTITLE0=Pista Datos
TTITLE1=John Lee Hooker/Blues Before Sunrise
TTITLE2=B.B. King/Paying The Cost To Be The Boss
TTITLE3=Billie Holiday/Am I Blue
TTITLE4=Ray Charles/Going Down Slow (I've Had My Fun)
TTITLE5=Bukka White/Black Train Blues
TTITLE6=Lonnie Johnson/Four Hands Are Better Than Two
TTITLE7=Blind Boy Fuller/My Brownskin Sugar Plum
TTITLE8=Sonny Boy Williamson/Got The Bottle Up And Go
TTITLE9=Big Joe Turner/Rebecca
TTITLE10=Blind Willie McTell/Stomp Down Rider
TTITLE11=Big Bill Broonzy/Bull Cow Blues
TTITLE12=Robert Johnson/When You Got A Friend
EXTD=
EXTT0=
EXTT1=
EXTT2=
EXTT3=
EXTT4=
EXTT5=
EXTT6=
EXTT7=
EXTT8=
EXTT9=
EXTT10=
EXTT11=
EXTT12=
PLAYORDER=
